<mxfile host="app.diagrams.net" modified="2023-06-19T15:12:15.829Z" agent="Mozilla/5.0 (Windows NT 10.0; Win64; x64) AppleWebKit/537.36 (KHTML, like Gecko) Chrome/112.0.0.0 YaBrowser/23.5.2.625 Yowser/2.5 Safari/537.36" etag="-8Pdgre4g0boYhPtY_zn" version="21.3.8" type="device">
  <diagram name="Страница 1" id="98M3j8RtydaP7Me1tCb0">
    <mxGraphModel dx="1290" dy="567" grid="1" gridSize="10" guides="1" tooltips="1" connect="1" arrows="1" fold="1" page="1" pageScale="1" pageWidth="3300" pageHeight="4681" math="0" shadow="0">
      <root>
        <mxCell id="0" />
        <mxCell id="1" parent="0" />
        <mxCell id="fESCrPx2pcZ3pMi_72na-3" style="edgeStyle=orthogonalEdgeStyle;rounded=0;orthogonalLoop=1;jettySize=auto;html=1;entryX=0.5;entryY=0;entryDx=0;entryDy=0;" parent="1" source="fESCrPx2pcZ3pMi_72na-1" target="fESCrPx2pcZ3pMi_72na-2" edge="1">
          <mxGeometry relative="1" as="geometry" />
        </mxCell>
        <mxCell id="fESCrPx2pcZ3pMi_72na-1" value="Получаем выбранное изображение и разметку к нему" style="rounded=1;whiteSpace=wrap;html=1;" parent="1" vertex="1">
          <mxGeometry x="260" y="80" width="190" height="50" as="geometry" />
        </mxCell>
        <mxCell id="f7M7oPgwc4Ld6tV3WNE2-6" style="edgeStyle=orthogonalEdgeStyle;rounded=0;orthogonalLoop=1;jettySize=auto;html=1;exitX=0.5;exitY=1;exitDx=0;exitDy=0;entryX=0.5;entryY=0;entryDx=0;entryDy=0;" edge="1" parent="1" source="fESCrPx2pcZ3pMi_72na-2" target="f7M7oPgwc4Ld6tV3WNE2-1">
          <mxGeometry relative="1" as="geometry" />
        </mxCell>
        <mxCell id="fESCrPx2pcZ3pMi_72na-2" value="Переводим пиксели изображения в одну строку 28х28=784 значений в строке" style="rounded=0;whiteSpace=wrap;html=1;" parent="1" vertex="1">
          <mxGeometry x="265" y="160" width="180" height="60" as="geometry" />
        </mxCell>
        <mxCell id="fESCrPx2pcZ3pMi_72na-12" style="edgeStyle=orthogonalEdgeStyle;rounded=0;orthogonalLoop=1;jettySize=auto;html=1;entryX=0.5;entryY=0;entryDx=0;entryDy=0;" parent="1" source="fESCrPx2pcZ3pMi_72na-8" target="fESCrPx2pcZ3pMi_72na-11" edge="1">
          <mxGeometry relative="1" as="geometry" />
        </mxCell>
        <mxCell id="fESCrPx2pcZ3pMi_72na-8" value="Макс. значение функции активации будет являться ответом сети" style="rounded=0;whiteSpace=wrap;html=1;" parent="1" vertex="1">
          <mxGeometry x="265" y="430" width="180" height="60" as="geometry" />
        </mxCell>
        <mxCell id="fESCrPx2pcZ3pMi_72na-11" value="Возвращаем ответ распознавания сети" style="rounded=1;whiteSpace=wrap;html=1;" parent="1" vertex="1">
          <mxGeometry x="275" y="520" width="160" height="50" as="geometry" />
        </mxCell>
        <mxCell id="f7M7oPgwc4Ld6tV3WNE2-7" style="edgeStyle=orthogonalEdgeStyle;rounded=0;orthogonalLoop=1;jettySize=auto;html=1;entryX=0;entryY=0.5;entryDx=0;entryDy=0;" edge="1" parent="1" source="f7M7oPgwc4Ld6tV3WNE2-1" target="f7M7oPgwc4Ld6tV3WNE2-2">
          <mxGeometry relative="1" as="geometry" />
        </mxCell>
        <mxCell id="f7M7oPgwc4Ld6tV3WNE2-1" value="Перемножаем матрицу входного слоя (784 значений) на матрицу весов 1 (784х50)" style="rounded=0;whiteSpace=wrap;html=1;" vertex="1" parent="1">
          <mxGeometry x="265" y="240" width="180" height="60" as="geometry" />
        </mxCell>
        <mxCell id="f7M7oPgwc4Ld6tV3WNE2-8" style="edgeStyle=orthogonalEdgeStyle;rounded=0;orthogonalLoop=1;jettySize=auto;html=1;" edge="1" parent="1" source="f7M7oPgwc4Ld6tV3WNE2-2" target="f7M7oPgwc4Ld6tV3WNE2-3">
          <mxGeometry relative="1" as="geometry" />
        </mxCell>
        <mxCell id="f7M7oPgwc4Ld6tV3WNE2-2" value="Используем функцию активации" style="rounded=0;whiteSpace=wrap;html=1;" vertex="1" parent="1">
          <mxGeometry x="475" y="240" width="180" height="60" as="geometry" />
        </mxCell>
        <mxCell id="f7M7oPgwc4Ld6tV3WNE2-9" style="edgeStyle=orthogonalEdgeStyle;rounded=0;orthogonalLoop=1;jettySize=auto;html=1;exitX=0;exitY=0.5;exitDx=0;exitDy=0;entryX=1;entryY=0.5;entryDx=0;entryDy=0;" edge="1" parent="1" source="f7M7oPgwc4Ld6tV3WNE2-3" target="f7M7oPgwc4Ld6tV3WNE2-4">
          <mxGeometry relative="1" as="geometry" />
        </mxCell>
        <mxCell id="f7M7oPgwc4Ld6tV3WNE2-3" value="Перемножаем матрицу входного слоя (50 значений) на матрицу весов 2 (50х10)" style="rounded=0;whiteSpace=wrap;html=1;" vertex="1" parent="1">
          <mxGeometry x="475" y="340" width="180" height="60" as="geometry" />
        </mxCell>
        <mxCell id="f7M7oPgwc4Ld6tV3WNE2-5" style="edgeStyle=orthogonalEdgeStyle;rounded=0;orthogonalLoop=1;jettySize=auto;html=1;entryX=0.5;entryY=0;entryDx=0;entryDy=0;" edge="1" parent="1" source="f7M7oPgwc4Ld6tV3WNE2-4" target="fESCrPx2pcZ3pMi_72na-8">
          <mxGeometry relative="1" as="geometry" />
        </mxCell>
        <mxCell id="f7M7oPgwc4Ld6tV3WNE2-4" value="Используем функцию активации" style="rounded=0;whiteSpace=wrap;html=1;" vertex="1" parent="1">
          <mxGeometry x="265" y="340" width="180" height="60" as="geometry" />
        </mxCell>
      </root>
    </mxGraphModel>
  </diagram>
</mxfile>
